<svg xmlns="http://www.w3.org/2000/svg" viewBox="0 0 64 64" width="64" height="64">

  <!-- Background -->
  <circle cx="32" cy="32" r="32" fill="#2D4A35"/>

  <!-- Koru spiral, centered and scaled for favicon -->
  <g transform="translate(9, 4) scale(0.72)">

    <path d="
      M 48 88
      C 48 88, 20 80, 16 58
      C 12 36, 28 16, 50 14
      C 72 12, 90 28, 90 50
      C 90 68, 76 80, 60 80
      C 46 80, 36 70, 36 58
      C 36 46, 46 38, 56 38
      C 64 38, 70 44, 70 52
      C 70 58, 65 63, 58 63
    "
    fill="none"
    stroke="white"
    stroke-width="9"
    stroke-linecap="round"
    stroke-linejoin="round"
    />

    <path d="M 48 88 C 48 88, 50 95, 52 100"
      fill="none"
      stroke="white"
      stroke-width="9"
      stroke-linecap="round"
    />

    <!-- Centre dot accent -->
    <circle cx="58" cy="53" r="5.5" fill="#C4622D"/>

  </g>

</svg>
